# xmcd
#
# Track frame offsets:
#	150
#	17201
#	33382
#	45306
#	62552
#	81535
#	99225
#	115331
#	130864
#	147339
#	171485
#
# Disc length: 2835 seconds
#
# Revision: 1
# Processed by: cddbd v1.5.2PL0 Copyright (c) Steve Scherf et al.
# Submitted via: audiograbber 1.83.01
#
DISCID=940b110b
DTITLE=Reba Mcentire - KGR13027
DYEAR=1900
DGENRE=Karaoke
TTITLE0=Consider Me Gone
TTITLE1=One Promise Too Late
TTITLE2=Can't Even Get The Blues
TTITLE3=Somebody Should Leave
TTITLE4=Every Other Weekend
TTITLE5=New Fool At An Old Game
TTITLE6=Whoever's In New England
TTITLE7=I keep On Loving You
TTITLE8=Love Will Find It's Way To You
TTITLE9=How Blue
TTITLE10=Data Track
EXTD=
EXTT0=
EXTT1=
EXTT2=
EXTT3=
EXTT4=
EXTT5=
EXTT6=
EXTT7=
EXTT8=
EXTT9=
EXTT10=
PLAYORDER=
